{
.appVersion = "1075";
copyright = "Copyright 2018 Google Inc. All Rights Reserved.";
customParameters = (
{
name = glyphOrder;
value = (
.notdef,
NULL,
CR,
space,
uni00A0,
u10500,
u10501,
u10502,
u10507,
u10511,
u10512,
u10513,
u10519,
u10517,
u10516,
u10506,
u1051A,
u10518,
u10503,
u10504,
u10505,
u10508,
u10509,
u1050A,
u1051B,
u1050B,
u1050C,
u1050D,
u1050E,
u1050F,
u10510,
u10514,
u10515,
u1051C,
u1051D,
u1051E,
u1051F,
u10520,
u10521,
u10522,
u10523,
u10524,
u10525,
u10526,
u10527,
Alpha,
Beta,
Gamma,
Delta,
Epsilon,
Zeta,
Eta,
Theta,
Iota,
Kappa,
Lambda,
Mu,
Nu,
Xi,
Omicron,
Pi,
Rho,
Sigma,
Tau,
Upsilon,
Phi,
Chi,
Psi,
Omega,
uni03DA,
uni03DC,
uni03DE,
uni25CC,
periodcentered,
overlinecmb,
overlinecmb.w1,
overlinecmb.w2,
overlinecmb.w3,
overlinecmb.w4
);
},
{
name = description;
value = "Designed by Monotype design team.";
},
{
name = license;
value = "This Font Software is licensed under the SIL Open Font License, Version 1.1. This Font Software is distributed on an \"AS IS\" BASIS, WITHOUT WARRANTIES OR CONDITIONS OF ANY KIND, either express or implied. See the SIL Open Font License for the specific language, permissions and limitations governing your use of this Font Software.";
},
{
name = licenseURL;
value = "http://scripts.sil.org/OFL";
},
{
name = vendorID;
value = GOOG;
},
{
name = unicodeRanges;
value = (
0,
1,
6,
7,
45,
57
);
},
{
name = trademark;
value = "Noto is a trademark of Google Inc.";
},
{
name = "Has WWS Names";
value = 1;
},
{
name = versionString;
value = "Version 2.000";
},
{
name = fsType;
value = (
);
},
{
name = codePageRanges;
value = (
"1252"
);
}
);
date = "2018-02-05 20:23:03 +0000";
designer = "Monotype Design Team";
designerURL = "http://www.monotype.com/studio";
disablesAutomaticAlignment = 1;
disablesNiceNames = 1;
familyName = "Noto Sans Elbasan";
fontMaster = (
{
alignmentZones = (
"{740, 15}",
"{714, 15}",
"{560, 15}",
"{0, -15}",
"{-250, -15}"
);
ascender = 750;
capHeight = 714;
customParameters = (
{

glyphs = (
{
glyphname = .notdef;
lastChange = "2018-03-12 19:50:51 +0000";
layers = (
{
layerId = UUID0;
paths = (
{
closed = 1;
nodes = (
"505 0 LINE",
"505 714 LINE",
"94 714 LINE",
"94 0 LINE"
);
},
{
closed = 1;
nodes = (
"145 663 LINE",
"454 663 LINE",
"454 51 LINE",
"145 51 LINE"
);
}
);
width = 600;
}
);
script = "";
category = Separator;
subCategory = Other;
},
{
glyphname = u10500;
lastChange = "2018-03-12 19:50:51 +0000";
layers = (
{
layerId = UUID0;
paths = (
{
closed = 1;
nodes = (
"308 -10 OFFCURVE",
"325 8 OFFCURVE",
"325 35 CURVE SMOOTH",
"325 55 OFFCURVE",
"312 72 OFFCURVE",
"294 75 CURVE SMOOTH",
"218 88 OFFCURVE",
"138 142 OFFCURVE",
"133 264 CURVE",
"342 264 LINE",
"361 154 OFFCURVE",
"446 92 OFFCURVE",
"536 92 CURVE SMOOTH",
"561 92 OFFCURVE",
"575 110 OFFCURVE",
"575 133 CURVE SMOOTH",
"575 151 OFFCURVE",
"563 165 OFFCURVE",
"546 168 CURVE SMOOTH",
"474 180 OFFCURVE",
"405 217 OFFCURVE",
"405 310 CURVE SMOOTH",
"405 402 OFFCURVE",
"464 450 OFFCURVE",
"546 463 CURVE SMOOTH",
"565 466 OFFCURVE",
"575 481 OFFCURVE",
"575 496 CURVE SMOOTH",
"575 510 OFFCURVE",
"565 518 OFFCURVE",
"546 518 CURVE SMOOTH",
"437 518 OFFCURVE",
"347 431 OFFCURVE",
"339 324 CURVE",
"135 324 LINE",
"145 442 OFFCURVE",
"207 497 OFFCURVE",
"276 505 CURVE SMOOTH",
"290 507 OFFCURVE",
"300 518 OFFCURVE",
"300 533 CURVE SMOOTH",
"300 548 OFFCURVE",
"295 560 OFFCURVE",
"271 560 CURVE SMOOTH",
"181 560 OFFCURVE",
"60 453 OFFCURVE",
"60 276 CURVE SMOOTH",
"60 100 OFFCURVE",
"179 -10 OFFCURVE",
"280 -10 CURVE SMOOTH"
);
}
);
width = 635;
}
);
unicode = 10500;
},
{
glyphname = u10501;
lastChange = "2018-03-12 19:50:51 +0000";
layers = (
{
layerId = UUID0;
paths = (
{
closed = 1;
nodes = (
"520 0 LINE SMOOTH",
"537 0 OFFCURVE",
"548 16 OFFCURVE",
"548 34 CURVE SMOOTH",
"548 45 OFFCURVE",
"542 57 OFFCURVE",
"533 68 CURVE SMOOTH",
"154 525 LINE SMOOTH",
"130 554 OFFCURVE",
"114 570 OFFCURVE",
"88 570 CURVE SMOOTH",
"64 570 OFFCURVE",
"45 553 OFFCURVE",
"45 531 CURVE SMOOTH",
"45 515 OFFCURVE",
"55 502 OFFCURVE",
"67 488 CURVE SMOOTH",
"420 60 LINE",
"261 60 LINE",
"261 0 LINE"
);
},
{
closed = 1;
nodes = (
"352 0 LINE",
"352 60 LINE",
"145 60 LINE",
"529 517 LINE SMOOTH",
"534 523 OFFCURVE",
"542 535 OFFCURVE",
"542 546 CURVE SMOOTH",
"542 559 OFFCURVE",
"533 570 OFFCURVE",
"516 570 CURVE SMOOTH",
"502 570 OFFCURVE",
"488 556 OFFCURVE",
"473 538 CURVE SMOOTH",
"80 68 LINE SMOOTH",
"71 57 OFFCURVE",
"65 45 OFFCURVE",
"65 34 CURVE SMOOTH",
"65 16 OFFCURVE",
"76 0 OFFCURVE",
"93 0 CURVE SMOOTH"
);
}
);
width = 593;
}
);
unicode = 10501;
},
{
glyphname = u10502;
lastChange = "2018-03-12 19:50:51 +0000";
layers = (
{
layerId = UUID0;
paths = (
{
closed = 1;
nodes = (
"269 0 LINE SMOOTH",
"483 0 OFFCURVE",
"542 97 OFFCURVE",
"542 188 CURVE SMOOTH",
"542 321 OFFCURVE",
"428 399 OFFCURVE",
"299 468 CURVE SMOOTH",
"125 561 LINE SMOOTH",
"114 567 OFFCURVE",
"105 570 OFFCURVE",
"93 570 CURVE SMOOTH",
"75 570 OFFCURVE",
"60 556 OFFCURVE",
"60 540 CURVE SMOOTH",
"60 527 OFFCURVE",
"66 517 OFFCURVE",
"79 510 CURVE SMOOTH",
"282 406 LINE SMOOTH",
"407 342 OFFCURVE",
"449 276 OFFCURVE",
"449 202 CURVE SMOOTH",
"449 113 OFFCURVE",
"409 60 OFFCURVE",
"273 60 CURVE SMOOTH",
"129 60 LINE",
"129 0 LINE"
);
},
{
closed = 1;
nodes = (
"147 -250 OFFCURVE",
"170 -241 OFFCURVE",
"170 -224 CURVE SMOOTH",
"170 367 LINE SMOOTH",
"170 382 OFFCURVE",
"148 390 OFFCURVE",
"126 390 CURVE SMOOTH",
"103 390 OFFCURVE",
"80 382 OFFCURVE",
"80 367 CURVE SMOOTH",
"80 -224 LINE SMOOTH",
"80 -241 OFFCURVE",
"102 -250 OFFCURVE",
"125 -250 CURVE SMOOTH"
);
}
);
width = 602;
}
);
unicode = 10502;
},
{
glyphname = u10507;
lastChange = "2018-03-12 19:50:51 +0000";
layers = (
{
layerId = UUID0;
paths = (
{
closed = 1;
nodes = (
"491 0 LINE SMOOTH",
"507 0 OFFCURVE",
"515 20 OFFCURVE",
"515 40 CURVE SMOOTH",
"515 60 OFFCURVE",
"507 80 OFFCURVE",
"491 80 CURVE SMOOTH",
"104 80 LINE",
"116 59 LINE",
"521 480 LINE SMOOTH",
"540 499 OFFCURVE",
"545 515 OFFCURVE",
"545 528 CURVE SMOOTH",
"545 545 OFFCURVE",
"532 560 OFFCURVE",
"505 560 CURVE SMOOTH",
"73 560 LINE SMOOTH",
"56 560 OFFCURVE",
"45 542 OFFCURVE",
"45 520 CURVE SMOOTH",
"45 502 OFFCURVE",
"53 480 OFFCURVE",
"73 480 CURVE SMOOTH",
"479 480 LINE",
"467 501 LINE",
"50 68 LINE SMOOTH",
"40 58 OFFCURVE",
"35 45 OFFCURVE",
"35 34 CURVE SMOOTH",
"35 16 OFFCURVE",
"46 0 OFFCURVE",
"63 0 CURVE SMOOTH"
);
}
);
width = 580;
}
);
unicode = 10507;
},
{
glyphname = u10511;
lastChange = "2018-03-12 19:50:51 +0000";
layers = (
{
components = (
{
name = u10510;
}
);
layerId = UUID0;
paths = (
{
closed = 1;
nodes = (
"383 645 OFFCURVE",
"407 668 OFFCURVE",
"407 697 CURVE SMOOTH",
"407 726 OFFCURVE",
"383 750 OFFCURVE",
"354 750 CURVE SMOOTH",
"325 750 OFFCURVE",
"302 726 OFFCURVE",
"302 697 CURVE SMOOTH",
"302 668 OFFCURVE",
"325 645 OFFCURVE",
"354 645 CURVE SMOOTH"
);
}
);
width = 702;
}
);
unicode = 10511;
},
{
glyphname = u10512;
lastChange = "2018-03-12 19:50:51 +0000";
layers = (
{
layerId = UUID0;
paths = (
{
closed = 1;
nodes = (
"147 -10 OFFCURVE",
"170 -1 OFFCURVE",
"170 16 CURVE SMOOTH",
"170 430 LINE",
"446 430 LINE",
"446 16 LINE SMOOTH",
"446 -1 OFFCURVE",
"468 -10 OFFCURVE",
"491 -10 CURVE SMOOTH",
"513 -10 OFFCURVE",
"536 -1 OFFCURVE",
"536 16 CURVE SMOOTH",
"536 439 LINE SMOOTH",
"536 473 OFFCURVE",
"528 490 OFFCURVE",
"485 490 CURVE SMOOTH",
"170 490 LINE",
"170 727 LINE SMOOTH",
"170 742 OFFCURVE",
"148 750 OFFCURVE",
"126 750 CURVE SMOOTH",
"103 750 OFFCURVE",
"80 742 OFFCURVE",
"80 727 CURVE SMOOTH",
"80 16 LINE SMOOTH",
"80 -1 OFFCURVE",
"102 -10 OFFCURVE",
"125 -10 CURVE SMOOTH"
);
}
);
width = 616;
}
);
unicode = 10512;
},
{
glyphname = u10513;
lastChange = "2018-03-12 19:50:51 +0000";
layers = (
{
layerId = UUID0;
paths = (
{
closed = 1;
nodes = (
"142 -10 OFFCURVE",
"163 -3 OFFCURVE",
"163 11 CURVE SMOOTH",
"163 461 LINE",
"472 16 LINE SMOOTH",
"488 -6 OFFCURVE",
"505 -10 OFFCURVE",
"525 -10 CURVE SMOOTH",
"551 -10 OFFCURVE",
"568 7 OFFCURVE",
"568 34 CURVE SMOOTH",
"568 549 LINE SMOOTH",
"568 563 OFFCURVE",
"548 570 OFFCURVE",
"527 570 CURVE SMOOTH",
"506 570 OFFCURVE",
"485 563 OFFCURVE",
"485 549 CURVE SMOOTH",
"485 100 LINE",
"176 544 LINE SMOOTH",
"160 566 OFFCURVE",
"146 570 OFFCURVE",
"126 570 CURVE SMOOTH",
"100 570 OFFCURVE",
"80 553 OFFCURVE",
"80 526 CURVE SMOOTH",
"80 11 LINE SMOOTH",
"80 -3 OFFCURVE",
"100 -10 OFFCURVE",
"121 -10 CURVE SMOOTH"
);
}
);
width = 648;
}
);
unicode = 10513;
},
{
glyphname = u10519;
lastChange = "2018-03-12 19:50:51 +0000";
layers = (
{
layerId = UUID0;
paths = (
{
closed = 1;
nodes = (
"513 -250 OFFCURVE",
"536 -242 OFFCURVE",
"536 -227 CURVE SMOOTH",
"536 724 LINE SMOOTH",
"536 741 OFFCURVE",
"514 750 OFFCURVE",
"491 750 CURVE SMOOTH",
"469 750 OFFCURVE",
"446 741 OFFCURVE",
"446 724 CURVE SMOOTH",
"446 60 LINE",
"170 60 LINE",
"170 364 LINE SMOOTH",
"170 381 OFFCURVE",
"148 390 OFFCURVE",
"125 390 CURVE SMOOTH",
"103 390 OFFCURVE",
"80 381 OFFCURVE",
"80 364 CURVE SMOOTH",
"80 51 LINE SMOOTH",
"80 17 OFFCURVE",
"88 0 OFFCURVE",
"131 0 CURVE",
"446 0 LINE",
"446 -227 LINE SMOOTH",
"446 -242 OFFCURVE",
"468 -250 OFFCURVE",
"490 -250 CURVE SMOOTH"
);
}
);
width = 616;
}
);
unicode = 10519;
},
{
glyphname = u10517;
lastChange = "2018-03-12 19:50:51 +0000";
layers = (
{
layerId = UUID0;
paths = (
{
closed = 1;
nodes = (
"148 -10 OFFCURVE",
"170 -1 OFFCURVE",
"170 16 CURVE SMOOTH",
"170 500 LINE",
"446 500 LINE",
"446 16 LINE SMOOTH",
"446 -1 OFFCURVE",
"468 -10 OFFCURVE",
"491 -10 CURVE SMOOTH",
"513 -10 OFFCURVE",
"536 -1 OFFCURVE",
"536 16 CURVE SMOOTH",
"536 509 LINE SMOOTH",
"536 543 OFFCURVE",
"528 560 OFFCURVE",
"485 560 CURVE SMOOTH",
"131 560 LINE SMOOTH",
"88 560 OFFCURVE",
"80 543 OFFCURVE",
"80 509 CURVE SMOOTH",
"80 16 LINE SMOOTH",
"80 -1 OFFCURVE",
"103 -10 OFFCURVE",
"125 -10 CURVE SMOOTH"
);
}
);
width = 616;
}
);
unicode = 10517;
},
{
glyphname = u10516;
lastChange = "2018-03-12 19:50:51 +0000";
layers = (
{
layerId = UUID0;
paths = (
{
closed = 1;
nodes = (
"452 -10 OFFCURVE",
"549 94 OFFCURVE",
"549 276 CURVE SMOOTH",
"549 457 OFFCURVE",
"462 570 OFFCURVE",
"303 570 CURVE SMOOTH",
"155 570 OFFCURVE",
"60 457 OFFCURVE",
"60 276 CURVE SMOOTH",
"60 94 OFFCURVE",
"150 -10 OFFCURVE",
"307 -10 CURVE SMOOTH"
);
},
{
closed = 1;
nodes = (
"205 72 OFFCURVE",
"153 146 OFFCURVE",
"153 276 CURVE SMOOTH",
"153 406 OFFCURVE",
"205 508 OFFCURVE",
"306 508 CURVE SMOOTH",
"443 508 OFFCURVE",
"476 406 OFFCURVE",
"476 276 CURVE SMOOTH",
"476 146 OFFCURVE",
"416 72 OFFCURVE",
"305 72 CURVE SMOOTH"
);
}
);
width = 609;
}
);
unicode = 10516;
},
{
glyphname = u10506;
lastChange = "2018-03-12 19:50:51 +0000";
layers = (
{
layerId = UUID0;
paths = (
{
closed = 1;
nodes = (
"350 -10 OFFCURVE",
"364 -3 OFFCURVE",
"371 10 CURVE SMOOTH",
"615 470 LINE SMOOTH",
"622 482 OFFCURVE",
"632 500 OFFCURVE",
"632 516 CURVE SMOOTH",
"632 539 OFFCURVE",
"620 560 OFFCURVE",
"586 560 CURVE SMOOTH",
"85 560 LINE SMOOTH",
"54 560 OFFCURVE",
"35 539 OFFCURVE",
"35 513 CURVE SMOOTH",
"35 496 OFFCURVE",
"41 482 OFFCURVE",
"48 470 CURVE SMOOTH",
"301 10 LINE SMOOTH",
"308 -3 OFFCURVE",
"323 -10 OFFCURVE",
"336 -10 CURVE SMOOTH"
);
},
{
closed = 1;
nodes = (
"127 500 LINE",
"570 500 LINE",
"345 77 LINE"
);
}
);
width = 667;
}
);
unicode = 10506;
},
{
glyphname = u1051A;
lastChange = "2018-03-12 19:50:51 +0000";
layers = (
{
layerId = UUID0;
paths = (
{
closed = 1;
nodes = (
"513 -250 OFFCURVE",
"536 -242 OFFCURVE",
"536 -227 CURVE SMOOTH",
"536 724 LINE SMOOTH",
"536 741 OFFCURVE",
"514 750 OFFCURVE",
"491 750 CURVE SMOOTH",
"469 750 OFFCURVE",
"446 741 OFFCURVE",
"446 724 CURVE SMOOTH",
"446 60 LINE",
"170 60 LINE",
"170 364 LINE SMOOTH",
"170 381 OFFCURVE",
"148 390 OFFCURVE",
"125 390 CURVE SMOOTH",
"103 390 OFFCURVE",
"80 381 OFFCURVE",
"80 364 CURVE SMOOTH",
"80 51 LINE SMOOTH",
"80 17 OFFCURVE",
"88 0 OFFCURVE",
"131 0 CURVE SMOOTH",
"446 0 LINE",
"446 -227 LINE SMOOTH",
"446 -242 OFFCURVE",
"468 -250 OFFCURVE",
"490 -250 CURVE SMOOTH"
);
},
{
closed = 1;
nodes = (
"154 465 OFFCURVE",
"178 488 OFFCURVE",
"178 517 CURVE SMOOTH",
"178 546 OFFCURVE",
"154 570 OFFCURVE",
"125 570 CURVE SMOOTH",
"96 570 OFFCURVE",
"73 546 OFFCURVE",
"73 517 CURVE SMOOTH",
"73 488 OFFCURVE",
"96 465 OFFCURVE",
"125 465 CURVE SMOOTH"
);
}
);
width = 616;
}
);
unicode = 1051A;
},
{
glyphname = u10518;
lastChange = "2018-03-12 19:50:51 +0000";
layers = (
{
layerId = UUID0;
paths = (
{
closed = 1;
nodes = (
"469 476 LINE SMOOTH",
"512 518 OFFCURVE",
"522 531 OFFCURVE",
"522 545 CURVE SMOOTH",
"522 558 OFFCURVE",
"514 570 OFFCURVE",
"497 570 CURVE SMOOTH",
"479 570 OFFCURVE",
"463 557 OFFCURVE",
"422 515 CURVE SMOOTH",
"115 202 LINE",
"152 163 LINE"
);
},
{
closed = 1;
nodes = (
"147 -10 OFFCURVE",
"170 -1 OFFCURVE",
"170 16 CURVE SMOOTH",
"170 547 LINE SMOOTH",
"170 562 OFFCURVE",
"148 570 OFFCURVE",
"126 570 CURVE SMOOTH",
"103 570 OFFCURVE",
"80 562 OFFCURVE",
"80 547 CURVE SMOOTH",
"80 16 LINE SMOOTH",
"80 -1 OFFCURVE",
"102 -10 OFFCURVE",
"125 -10 CURVE SMOOTH"
);
},
{
closed = 1;
nodes = (
"580 -10 OFFCURVE",
"599 5 OFFCURVE",
"599 25 CURVE SMOOTH",
"599 41 OFFCURVE",
"589 52 OFFCURVE",
"566 71 CURVE SMOOTH",
"253 327 LINE",
"202 268 LINE",
"511 13 LINE SMOOTH",
"532 -4 OFFCURVE",
"545 -10 OFFCURVE",
"563 -10 CURVE SMOOTH"
);
}
);
width = 634;
}
);
unicode = 10518;
},
{
glyphname = u10503;
lastChange = "2018-03-12 19:50:51 +0000";
layers = (
{
layerId = UUID0;
paths = (
{
closed = 1;
nodes = (
"546 -10 OFFCURVE",
"608 57 OFFCURVE",
"608 180 CURVE SMOOTH",
"608 724 LINE SMOOTH",
"608 741 OFFCURVE",
"586 750 OFFCURVE",
"563 750 CURVE SMOOTH",
"541 750 OFFCURVE",
"518 741 OFFCURVE",
"518 724 CURVE SMOOTH",
"518 141 LINE SMOOTH",
"518 80 OFFCURVE",
"491 52 OFFCURVE",
"445 52 CURVE SMOOTH",
"398 52 OFFCURVE",
"369 79 OFFCURVE",
"369 139 CURVE SMOOTH",
"369 258 LINE SMOOTH",
"369 399 OFFCURVE",
"291 438 OFFCURVE",
"206 438 CURVE SMOOTH",
"102 438 OFFCURVE",
"45 379 OFFCURVE",
"45 256 CURVE SMOOTH",
"45 191 LINE SMOOTH",
"45 173 OFFCURVE",
"61 165 OFFCURVE",
"78 165 CURVE SMOOTH",
"96 165 OFFCURVE",
"110 174 OFFCURVE",
"110 191 CURVE SMOOTH",
"110 275 LINE SMOOTH",
"110 352 OFFCURVE",
"152 376 OFFCURVE",
"199 376 CURVE SMOOTH",
"244 376 OFFCURVE",
"279 341 OFFCURVE",
"279 289 CURVE SMOOTH",
"279 170 LINE SMOOTH",
"279 38 OFFCURVE",
"357 -10 OFFCURVE",
"442 -10 CURVE SMOOTH"
);
}
);
width = 688;
}
);
unicode = 10503;
},
{
glyphname = u10504;
lastChange = "2018-03-12 19:50:51 +0000";
layers = (
{
layerId = UUID0;
paths = (
{
closed = 1;
nodes = (
"485 0 LINE SMOOTH",
"528 0 OFFCURVE",
"536 17 OFFCURVE",
"536 51 CURVE SMOOTH",
"536 724 LINE SMOOTH",
"536 741 OFFCURVE",
"514 750 OFFCURVE",
"491 750 CURVE SMOOTH",
"469 750 OFFCURVE",
"446 741 OFFCURVE",
"446 724 CURVE SMOOTH",
"446 60 LINE",
"170 60 LINE",
"170 364 LINE SMOOTH",
"170 381 OFFCURVE",
"148 390 OFFCURVE",
"125 390 CURVE SMOOTH",
"103 390 OFFCURVE",
"80 381 OFFCURVE",
"80 364 CURVE SMOOTH",
"80 51 LINE SMOOTH",
"80 17 OFFCURVE",
"88 0 OFFCURVE",
"131 0 CURVE SMOOTH"
);
}
);
width = 616;
}
);
unicode = 10504;
},
{
glyphname = u10505;
lastChange = "2018-03-12 19:50:51 +0000";
layers = (
{
layerId = UUID0;
paths = (
{
closed = 1;
nodes = (
"485 0 LINE SMOOTH",
"528 0 OFFCURVE",
"536 17 OFFCURVE",
"536 51 CURVE SMOOTH",
"536 724 LINE SMOOTH",
"536 741 OFFCURVE",
"514 750 OFFCURVE",
"491 750 CURVE SMOOTH",
"469 750 OFFCURVE",
"446 741 OFFCURVE",
"446 724 CURVE SMOOTH",
"446 60 LINE",
"170 60 LINE",
"170 364 LINE SMOOTH",
"170 381 OFFCURVE",
"148 390 OFFCURVE",
"125 390 CURVE SMOOTH",
"103 390 OFFCURVE",
"80 381 OFFCURVE",
"80 364 CURVE SMOOTH",
"80 51 LINE SMOOTH",
"80 17 OFFCURVE",
"88 0 OFFCURVE",
"131 0 CURVE SMOOTH"
);
},
{
closed = 1;
nodes = (
"154 465 OFFCURVE",
"178 488 OFFCURVE",
"178 517 CURVE SMOOTH",
"178 546 OFFCURVE",
"154 570 OFFCURVE",
"125 570 CURVE SMOOTH",
"96 570 OFFCURVE",
"73 546 OFFCURVE",
"73 517 CURVE SMOOTH",
"73 488 OFFCURVE",
"96 465 OFFCURVE",
"125 465 CURVE SMOOTH"
);
}
);
width = 616;
}
);
unicode = 10505;
},
{
glyphname = u10508;
lastChange = "2018-03-12 19:50:51 +0000";
layers = (
{
layerId = UUID0;
paths = (
{
closed = 1;
nodes = (
"481 -250 OFFCURVE",
"504 -242 OFFCURVE",
"504 -227 CURVE SMOOTH",
"504 74 LINE SMOOTH",
"504 101 OFFCURVE",
"488 115 OFFCURVE",
"459 115 CURVE SMOOTH",
"444 115 OFFCURVE",
"428 108 OFFCURVE",
"408 98 CURVE SMOOTH",
"380 84 OFFCURVE",
"346 67 OFFCURVE",
"302 67 CURVE SMOOTH",
"224 67 OFFCURVE",
"153 141 OFFCURVE",
"153 276 CURVE SMOOTH",
"153 441 OFFCURVE",
"248 504 OFFCURVE",
"332 512 CURVE SMOOTH",
"353 514 OFFCURVE",
"362 529 OFFCURVE",
"362 543 CURVE SMOOTH",
"362 558 OFFCURVE",
"352 570 OFFCURVE",
"332 570 CURVE SMOOTH",
"200 570 OFFCURVE",
"60 453 OFFCURVE",
"60 276 CURVE SMOOTH",
"60 100 OFFCURVE",
"157 -5 OFFCURVE",
"282 -5 CURVE SMOOTH",
"346 -5 OFFCURVE",
"406 27 OFFCURVE",
"433 52 CURVE",
"414 63 LINE",
"414 -227 LINE SMOOTH",
"414 -242 OFFCURVE",
"436 -250 OFFCURVE",
"458 -250 CURVE SMOOTH"
);
}
);
width = 564;
}
);
unicode = 10508;
},
{
glyphname = u10509;
lastChange = "2018-03-12 19:50:51 +0000";
layers = (
{
layerId = UUID0;
paths = (
{
closed = 1;
nodes = (
"430 -9 OFFCURVE",
"518 63 OFFCURVE",
"518 152 CURVE SMOOTH",
"518 241 OFFCURVE",
"426 314 OFFCURVE",
"315 314 CURVE SMOOTH",
"244 314 OFFCURVE",
"181 284 OFFCURVE",
"145 233 CURVE",
"158 223 LINE",
"165 273 OFFCURVE",
"170 322 OFFCURVE",
"170 402 CURVE SMOOTH",
"170 597 LINE SMOOTH",
"170 612 OFFCURVE",
"148 620 OFFCURVE",
"126 620 CURVE SMOOTH",
"103 620 OFFCURVE",
"80 612 OFFCURVE",
"80 597 CURVE SMOOTH",
"80 182 LINE SMOOTH",
"80 68 OFFCURVE",
"163 -9 OFFCURVE",
"309 -9 CURVE SMOOTH"
);
},
{
closed = 1;
nodes = (
"232 52 OFFCURVE",
"169 97 OFFCURVE",
"169 152 CURVE SMOOTH",
"169 207 OFFCURVE",
"232 252 OFFCURVE",
"309 252 CURVE SMOOTH",
"386 252 OFFCURVE",
"449 207 OFFCURVE",
"449 152 CURVE SMOOTH",
"449 97 OFFCURVE",
"386 52 OFFCURVE",
"309 52 CURVE SMOOTH"
);
}
);
width = 568;
}
);
unicode = 10509;
},
{
glyphname = u1050A;
lastChange = "2018-03-12 19:50:51 +0000";
layers = (
{
layerId = UUID0;
paths = (
{
closed = 1;
nodes = (
"510 -9 OFFCURVE",
"578 65 OFFCURVE",
"578 154 CURVE SMOOTH",
"578 243 OFFCURVE",
"505 314 OFFCURVE",
"389 314 CURVE SMOOTH",
"328 314 OFFCURVE",
"258 280 OFFCURVE",
"233 237 CURVE",
"250 250 LINE",
"250 356 OFFCURVE",
"307 439 OFFCURVE",
"379 499 CURVE SMOOTH",
"394 512 OFFCURVE",
"401 521 OFFCURVE",
"401 535 CURVE SMOOTH",
"401 550 OFFCURVE",
"390 560 OFFCURVE",
"371 560 CURVE SMOOTH",
"39 560 LINE SMOOTH",
"27 560 OFFCURVE",
"20 546 OFFCURVE",
"20 531 CURVE SMOOTH",
"20 516 OFFCURVE",
"24 500 OFFCURVE",
"39 500 CURVE SMOOTH",
"317 500 LINE",
"310 519 LINE",
"236 459 OFFCURVE",
"167 359 OFFCURVE",
"167 232 CURVE SMOOTH",
"167 95 OFFCURVE",
"233 -9 OFFCURVE",
"389 -9 CURVE SMOOTH"
);
},
{
closed = 1;
nodes = (
"321 52 OFFCURVE",
"267 94 OFFCURVE",
"267 152 CURVE SMOOTH",
"267 210 OFFCURVE",
"317 252 OFFCURVE",
"389 252 CURVE SMOOTH",
"471 252 OFFCURVE",
"509 207 OFFCURVE",
"509 152 CURVE SMOOTH",
"509 97 OFFCURVE",
"466 52 OFFCURVE",
"389 52 CURVE SMOOTH"
);
}
);
width = 628;
}
);
unicode = 1050A;
},
{
glyphname = u1051B;
lastChange = "2018-03-12 19:50:51 +0000";
layers = (
{
layerId = UUID0;
paths = (
{
closed = 1;
nodes = (
"456 0 LINE SMOOTH",
"476 0 OFFCURVE",
"484 22 OFFCURVE",
"484 40 CURVE SMOOTH",
"484 62 OFFCURVE",
"473 80 OFFCURVE",
"456 80 CURVE SMOOTH",
"330 80 LINE SMOOTH",
"206 80 OFFCURVE",
"153 161 OFFCURVE",
"153 279 CURVE SMOOTH",
"153 442 OFFCURVE",
"204 505 OFFCURVE",
"330 505 CURVE SMOOTH",
"486 505 LINE SMOOTH",
"504 505 OFFCURVE",
"515 515 OFFCURVE",
"515 533 CURVE SMOOTH",
"515 552 OFFCURVE",
"503 560 OFFCURVE",
"485 560 CURVE SMOOTH",
"320 560 LINE SMOOTH",
"153 560 OFFCURVE",
"60 452 OFFCURVE",
"60 279 CURVE SMOOTH",
"60 114 OFFCURVE",
"148 0 OFFCURVE",
"330 0 CURVE SMOOTH"
);
}
);
width = 550;
}
);
unicode = 1051B;
},
{
glyphname = u1050B;
lastChange = "2018-03-12 19:50:51 +0000";
layers = (
{
layerId = UUID0;
paths = (
{
closed = 1;
nodes = (
"438 -250 OFFCURVE",
"461 -242 OFFCURVE",
"461 -227 CURVE SMOOTH",
"461 -8 LINE",
"603 1 OFFCURVE",
"780 65 OFFCURVE",
"780 276 CURVE SMOOTH",
"780 437 OFFCURVE",
"681 500 OFFCURVE",
"579 500 CURVE SMOOTH",
"460 500 OFFCURVE",
"371 422 OFFCURVE",
"371 276 CURVE SMOOTH",
"371 54 LINE",
"210 78 OFFCURVE",
"153 197 OFFCURVE",
"153 315 CURVE SMOOTH",
"153 426 OFFCURVE",
"210 503 OFFCURVE",
"299 518 CURVE SMOOTH",
"318 521 OFFCURVE",
"328 533 OFFCURVE",
"328 546 CURVE SMOOTH",
"328 558 OFFCURVE",
"319 570 OFFCURVE",
"299 570 CURVE SMOOTH",
"177 570 OFFCURVE",
"60 463 OFFCURVE",
"60 302 CURVE SMOOTH",
"60 136 OFFCURVE",
"162 9 OFFCURVE",
"371 -8 CURVE",
"371 -227 LINE SMOOTH",
"371 -242 OFFCURVE",
"393 -250 OFFCURVE",
"415 -250 CURVE SMOOTH"
);
},
{
closed = 1;
nodes = (
"461 276 LINE SMOOTH",
"461 397 OFFCURVE",
"501 438 OFFCURVE",
"574 438 CURVE SMOOTH",
"643 438 OFFCURVE",
"687 376 OFFCURVE",
"687 282 CURVE SMOOTH",
"687 169 OFFCURVE",
"632 62 OFFCURVE",
"461 51 CURVE"
);
}
);
width = 840;
}
);
unicode = 1050B;
},
{
glyphname = u1050C;
lastChange = "2018-03-12 19:50:51 +0000";
layers = (
{
layerId = UUID0;
paths = (
{
closed = 1;
nodes = (
"612 -250 OFFCURVE",
"693 -210 OFFCURVE",
"693 -168 CURVE SMOOTH",
"693 -141 OFFCURVE",
"679 -124 OFFCURVE",
"654 -124 CURVE SMOOTH",
"639 -124 OFFCURVE",
"625 -131 OFFCURVE",
"608 -140 CURVE SMOOTH",
"583 -153 OFFCURVE",
"551 -168 OFFCURVE",
"503 -168 CURVE SMOOTH",
"410 -168 OFFCURVE",
"299 -111 OFFCURVE",
"299 34 CURVE SMOOTH",
"299 85 OFFCURVE",
"310 122 OFFCURVE",
"319 144 CURVE SMOOTH",
"325 158 OFFCURVE",
"329 168 OFFCURVE",
"329 178 CURVE SMOOTH",
"329 195 OFFCURVE",
"317 210 OFFCURVE",
"294 214 CURVE SMOOTH",
"216 228 OFFCURVE",
"133 258 OFFCURVE",
"133 361 CURVE SMOOTH",
"133 438 OFFCURVE",
"185 493 OFFCURVE",
"274 508 CURVE SMOOTH",
"297 512 OFFCURVE",
"310 524 OFFCURVE",
"310 542 CURVE SMOOTH",
"310 555 OFFCURVE",
"301 570 OFFCURVE",
"279 570 CURVE SMOOTH",
"166 570 OFFCURVE",
"60 473 OFFCURVE",
"60 356 CURVE SMOOTH",
"60 228 OFFCURVE",
"152 163 OFFCURVE",
"258 148 CURVE",
"254 159 LINE",
"238 128 OFFCURVE",
"226 79 OFFCURVE",
"226 32 CURVE SMOOTH",
"226 -117 OFFCURVE",
"325 -250 OFFCURVE",
"512 -250 CURVE SMOOTH"
);
}
);
width = 673;
}
);
unicode = 1050C;
},
{
glyphname = u1050D;
lastChange = "2018-03-12 19:50:51 +0000";
layers = (
{
layerId = UUID0;
paths = (
{
closed = 1;
nodes = (
"149 -10 OFFCURVE",
"164 -1 OFFCURVE",
"176 16 CURVE SMOOTH",
"485 458 LINE",
"485 11 LINE SMOOTH",
"485 -3 OFFCURVE",
"506 -10 OFFCURVE",
"527 -10 CURVE SMOOTH",
"548 -10 OFFCURVE",
"568 -3 OFFCURVE",
"568 11 CURVE SMOOTH",
"568 516 LINE SMOOTH",
"568 543 OFFCURVE",
"551 560 OFFCURVE",
"523 560 CURVE SMOOTH",
"500 560 OFFCURVE",
"485 553 OFFCURVE",
"472 534 CURVE SMOOTH",
"163 88 LINE",
"163 539 LINE SMOOTH",
"163 553 OFFCURVE",
"142 560 OFFCURVE",
"121 560 CURVE SMOOTH",
"100 560 OFFCURVE",
"80 553 OFFCURVE",
"80 539 CURVE SMOOTH",
"80 34 LINE SMOOTH",
"80 7 OFFCURVE",
"100 -10 OFFCURVE",
"126 -10 CURVE SMOOTH"
);
}
);
width = 648;
}
);
unicode = 1050D;
},
{
glyphname = u1050E;
lastChange = "2018-03-12 19:50:51 +0000";
layers = (
{
layerId = UUID0;
paths = (
{
closed = 1;
nodes = (
"167 -10 OFFCURVE",
"190 -1 OFFCURVE",
"190 16 CURVE SMOOTH",
"190 547 LINE SMOOTH",
"190 562 OFFCURVE",
"168 570 OFFCURVE",
"146 570 CURVE SMOOTH",
"123 570 OFFCURVE",
"100 562 OFFCURVE",
"100 547 CURVE SMOOTH",
"100 16 LINE SMOOTH",
"100 -1 OFFCURVE",
"122 -10 OFFCURVE",
"145 -10 CURVE SMOOTH"
);
}
);
width = 290;
}
);
unicode = 1050E;
},
{
glyphname = u1050F;
lastChange = "2018-03-12 19:50:51 +0000";
layers = (
{
layerId = UUID0;
paths = (
{
closed = 1;
nodes = (
"148 -10 OFFCURVE",
"170 -1 OFFCURVE",
"170 16 CURVE SMOOTH",
"170 500 LINE",
"489 500 LINE SMOOTH",
"508 500 OFFCURVE",
"517 514 OFFCURVE",
"517 529 CURVE SMOOTH",
"517 544 OFFCURVE",
"507 560 OFFCURVE",
"489 560 CURVE SMOOTH",
"131 560 LINE SMOOTH",
"95 560 OFFCURVE",
"80 543 OFFCURVE",
"80 509 CURVE SMOOTH",
"80 16 LINE SMOOTH",
"80 -1 OFFCURVE",
"103 -10 OFFCURVE",
"125 -10 CURVE SMOOTH"
);
}
);
width = 547;
}
);
unicode = 1050F;
},
{
glyphname = u10510;
lastChange = "2018-03-12 19:50:51 +0000";
layers = (
{
layerId = UUID0;
paths = (
{
closed = 1;
nodes = (
"75 -10 OFFCURVE",
"86 3 OFFCURVE",
"98 25 CURVE SMOOTH",
"334 474 LINE",
"577 19 LINE SMOOTH",
"588 -1 OFFCURVE",
"600 -10 OFFCURVE",
"619 -10 CURVE SMOOTH",
"643 -10 OFFCURVE",
"666 9 OFFCURVE",
"666 29 CURVE SMOOTH",
"666 38 OFFCURVE",
"663 47 OFFCURVE",
"658 57 CURVE SMOOTH",
"388 550 LINE SMOOTH",
"381 563 OFFCURVE",
"367 570 OFFCURVE",
"353 570 CURVE SMOOTH",
"340 570 OFFCURVE",
"325 563 OFFCURVE",
"318 550 CURVE SMOOTH",
"48 52 LINE SMOOTH",
"40 38 OFFCURVE",
"34 26 OFFCURVE",
"34 14 CURVE SMOOTH",
"34 1 OFFCURVE",
"43 -10 OFFCURVE",
"59 -10 CURVE SMOOTH"
);
}
);
width = 702;
}
);
unicode = 10510;
},
{
glyphname = u10514;
lastChange = "2018-03-12 19:50:51 +0000";
layers = (
{
layerId = UUID0;
paths = (
{
closed = 1;
nodes = (
"469 -250 OFFCURVE",
"492 -241 OFFCURVE",
"492 -224 CURVE SMOOTH",
"492 537 LINE SMOOTH",
"492 562 OFFCURVE",
"470 570 OFFCURVE",
"448 570 CURVE SMOOTH",
"426 570 OFFCURVE",
"412 561 OFFCURVE",
"393 541 CURVE SMOOTH",
"227 365 LINE SMOOTH",
"96 226 OFFCURVE",
"35 153 OFFCURVE",
"35 84 CURVE SMOOTH",
"35 22 OFFCURVE",
"79 -14 OFFCURVE",
"143 -14 CURVE SMOOTH",
"203 -14 OFFCURVE",
"264 19 OFFCURVE",
"323 56 CURVE SMOOTH",
"345 70 OFFCURVE",
"357 84 OFFCURVE",
"357 103 CURVE SMOOTH",
"357 123 OFFCURVE",
"341 139 OFFCURVE",
"316 139 CURVE SMOOTH",
"304 139 OFFCURVE",
"292 135 OFFCURVE",
"279 126 CURVE SMOOTH",
"250 105 LINE SMOOTH",
"228 89 OFFCURVE",
"179 56 OFFCURVE",
"143 56 CURVE SMOOTH",
"118 56 OFFCURVE",
"103 71 OFFCURVE",
"103 94 CURVE SMOOTH",
"103 134 OFFCURVE",
"131 182 OFFCURVE",
"259 319 CURVE SMOOTH",
"402 471 LINE",
"402 -224 LINE SMOOTH",
"402 -241 OFFCURVE",
"424 -250 OFFCURVE",
"447 -250 CURVE SMOOTH"
);
}
);
width = 572;
}
);
unicode = 10514;
},
{
glyphname = u10515;
lastChange = "2018-03-12 19:50:51 +0000";
layers = (
{
layerId = UUID0;
paths = (
{
closed = 1;
nodes = (
"444 -10 OFFCURVE",
"467 -1 OFFCURVE",
"467 16 CURVE SMOOTH",
"467 509 LINE SMOOTH",
"467 543 OFFCURVE",
"459 560 OFFCURVE",
"416 560 CURVE SMOOTH",
"61 560 LINE SMOOTH",
"40 560 OFFCURVE",
"30 544 OFFCURVE",
"30 529 CURVE SMOOTH",
"30 514 OFFCURVE",
"39 500 OFFCURVE",
"58 500 CURVE SMOOTH",
"377 500 LINE",
"377 16 LINE SMOOTH",
"377 -1 OFFCURVE",
"399 -10 OFFCURVE",
"422 -10 CURVE SMOOTH"
);
}
);
width = 547;
}
);
unicode = 10515;
},
{
glyphname = u1051C;
lastChange = "2018-03-12 19:50:51 +0000";
layers = (
{
layerId = UUID0;
paths = (
{
closed = 1;
nodes = (
"148 -10 OFFCURVE",
"170 -1 OFFCURVE",
"170 16 CURVE SMOOTH",
"170 257 LINE",
"446 257 LINE",
"446 16 LINE SMOOTH",
"446 -1 OFFCURVE",
"468 -10 OFFCURVE",
"491 -10 CURVE SMOOTH",
"513 -10 OFFCURVE",
"536 -1 OFFCURVE",
"536 16 CURVE SMOOTH",
"536 509 LINE SMOOTH",
"536 543 OFFCURVE",
"528 560 OFFCURVE",
"485 560 CURVE SMOOTH",
"131 560 LINE SMOOTH",
"93 560 OFFCURVE",
"80 546 OFFCURVE",
"80 509 CURVE SMOOTH",
"80 16 LINE SMOOTH",
"80 -1 OFFCURVE",
"103 -10 OFFCURVE",
"125 -10 CURVE SMOOTH"
);
},
{
closed = 1;
nodes = (
"170 500 LINE",
"446 500 LINE",
"446 317 LINE",
"170 317 LINE"
);
}
);
width = 616;
}
);
unicode = 1051C;
},
{
glyphname = u1051D;
lastChange = "2018-03-12 19:50:51 +0000";
layers = (
{
layerId = UUID0;
paths = (
{
closed = 1;
nodes = (
"361 -10 OFFCURVE",
"376 -4 OFFCURVE",
"383 10 CURVE SMOOTH",
"629 515 LINE SMOOTH",
"635 528 OFFCURVE",
"639 539 OFFCURVE",
"639 549 CURVE SMOOTH",
"639 563 OFFCURVE",
"627 570 OFFCURVE",
"613 570 CURVE SMOOTH",
"601 570 OFFCURVE",
"594 560 OFFCURVE",
"583 537 CURVE SMOOTH",
"367 86 LINE",
"124 541 LINE SMOOTH",
"112 563 OFFCURVE",
"99 570 OFFCURVE",
"80 570 CURVE SMOOTH",
"53 570 OFFCURVE",
"35 553 OFFCURVE",
"35 531 CURVE SMOOTH",
"35 519 OFFCURVE",
"38 513 OFFCURVE",
"43 503 CURVE SMOOTH",
"313 10 LINE SMOOTH",
"320 -3 OFFCURVE",
"334 -10 OFFCURVE",
"348 -10 CURVE SMOOTH"
);
}
);
width = 674;
}
);
unicode = 1051D;
},
{
glyphname = u1051E;
lastChange = "2018-03-12 19:50:51 +0000";
layers = (
{
layerId = UUID0;
paths = (
{
closed = 1;
nodes = (
"424 -10 OFFCURVE",
"495 159 OFFCURVE",
"495 368 CURVE SMOOTH",
"495 577 OFFCURVE",
"407 750 OFFCURVE",
"278 750 CURVE SMOOTH",
"133 750 OFFCURVE",
"60 578 OFFCURVE",
"60 368 CURVE SMOOTH",
"60 159 OFFCURVE",
"123 -10 OFFCURVE",
"278 -10 CURVE SMOOTH"
);
},
{
closed = 1;
nodes = (
"181 72 OFFCURVE",
"152 190 OFFCURVE",
"152 368 CURVE SMOOTH",
"152 401 LINE",
"138 407 LINE",
"164 366 OFFCURVE",
"201 350 OFFCURVE",
"276 350 CURVE SMOOTH",
"424 350 LINE",
"421 183 OFFCURVE",
"372 72 OFFCURVE",
"278 72 CURVE SMOOTH"
);
},
{
closed = 1;
nodes = (
"199 410 OFFCURVE",
"163 431 OFFCURVE",
"154 451 CURVE",
"164 588 OFFCURVE",
"199 688 OFFCURVE",
"280 688 CURVE SMOOTH",
"370 688 OFFCURVE",
"416 567 OFFCURVE",
"423 410 CURVE",
"276 410 LINE SMOOTH"
);
}
);
width = 555;
}
);
unicode = 1051E;
},
{
glyphname = u1051F;
lastChange = "2018-03-12 19:50:51 +0000";
layers = (
{
layerId = UUID0;
paths = (
{
closed = 1;
nodes = (
"449 -20 OFFCURVE",
"518 57 OFFCURVE",
"518 154 CURVE SMOOTH",
"518 232 OFFCURVE",
"457 311 OFFCURVE",
"379 371 CURVE",
"556 481 LINE SMOOTH",
"591 503 OFFCURVE",
"605 520 OFFCURVE",
"605 535 CURVE SMOOTH",
"605 548 OFFCURVE",
"596 560 OFFCURVE",
"578 560 CURVE SMOOTH",
"558 560 OFFCURVE",
"526 539 OFFCURVE",
"487 513 CURVE SMOOTH",
"330 410 LINE",
"139 543 LINE SMOOTH",
"111 563 OFFCURVE",
"96 570 OFFCURVE",
"76 570 CURVE SMOOTH",
"56 570 OFFCURVE",
"35 553 OFFCURVE",
"35 528 CURVE SMOOTH",
"35 508 OFFCURVE",
"45 497 OFFCURVE",
"70 480 CURVE SMOOTH",
"202 392 OFFCURVE",
"229 373 OFFCURVE",
"254 355 CURVE",
"160 281 OFFCURVE",
"115 215 OFFCURVE",
"115 142 CURVE SMOOTH",
"115 59 OFFCURVE",
"182 -20 OFFCURVE",
"312 -20 CURVE SMOOTH"
);
},
{
closed = 1;
nodes = (
"221 62 OFFCURVE",
"188 103 OFFCURVE",
"188 156 CURVE SMOOTH",
"188 226 OFFCURVE",
"242 278 OFFCURVE",
"321 333 CURVE",
"282 333 LINE",
"364 270 OFFCURVE",
"425 203 OFFCURVE",
"425 152 CURVE SMOOTH",
"425 102 OFFCURVE",
"397 62 OFFCURVE",
"312 62 CURVE SMOOTH"
);
}
);
width = 640;
}
);
unicode = 1051F;
},
{
glyphname = u10520;
lastChange = "2018-03-12 19:50:51 +0000";
layers = (
{
layerId = UUID0;
paths = (
{
closed = 1;
nodes = (
"147 -250 OFFCURVE",
"170 -242 OFFCURVE",
"170 -227 CURVE SMOOTH",
"170 0 LINE",
"485 0 LINE SMOOTH",
"521 0 OFFCURVE",
"536 14 OFFCURVE",
"536 51 CURVE SMOOTH",
"536 544 LINE SMOOTH",
"536 561 OFFCURVE",
"513 570 OFFCURVE",
"491 570 CURVE SMOOTH",
"468 570 OFFCURVE",
"446 561 OFFCURVE",
"446 544 CURVE SMOOTH",
"446 60 LINE",
"170 60 LINE",
"170 544 LINE SMOOTH",
"170 561 OFFCURVE",
"148 570 OFFCURVE",
"125 570 CURVE SMOOTH",
"103 570 OFFCURVE",
"80 561 OFFCURVE",
"80 544 CURVE SMOOTH",
"80 -227 LINE SMOOTH",
"80 -242 OFFCURVE",
"102 -250 OFFCURVE",
"124 -250 CURVE SMOOTH"
);
}
);
width = 616;
}
);
unicode = 10520;
},
{
glyphname = u10521;
lastChange = "2018-03-12 19:50:51 +0000";
layers = (
{
layerId = UUID0;
paths = (
{
closed = 1;
nodes = (
"356 -267 OFFCURVE",
"370 -259 OFFCURVE",
"390 -245 CURVE SMOOTH",
"488 -177 OFFCURVE",
"541 -79 OFFCURVE",
"541 46 CURVE SMOOTH",
"541 203 OFFCURVE",
"440 300 OFFCURVE",
"312 300 CURVE SMOOTH",
"254 300 OFFCURVE",
"186 271 OFFCURVE",
"148 231 CURVE",
"170 228 LINE",
"170 547 LINE SMOOTH",
"170 562 OFFCURVE",
"148 570 OFFCURVE",
"126 570 CURVE SMOOTH",
"103 570 OFFCURVE",
"80 562 OFFCURVE",
"80 547 CURVE SMOOTH",
"80 16 LINE SMOOTH",
"80 -1 OFFCURVE",
"102 -10 OFFCURVE",
"125 -10 CURVE SMOOTH",
"147 -10 OFFCURVE",
"170 -1 OFFCURVE",
"170 16 CURVE SMOOTH",
"170 181 LINE",
"205 218 OFFCURVE",
"260 238 OFFCURVE",
"301 238 CURVE SMOOTH",
"397 238 OFFCURVE",
"463 166 OFFCURVE",
"463 60 CURVE SMOOTH",
"463 -86 OFFCURVE",
"390 -150 OFFCURVE",
"312 -195 CURVE SMOOTH",
"297 -203 OFFCURVE",
"291 -212 OFFCURVE",
"291 -220 CURVE SMOOTH",
"291 -233 OFFCURVE",
"310 -267 OFFCURVE",
"342 -267 CURVE SMOOTH"
);
}
);
width = 586;
}
);
unicode = 10521;
},
{
glyphname = u10522;
lastChange = "2018-03-12 19:50:51 +0000";
layers = (
{
layerId = UUID0;
paths = (
{
closed = 1;
nodes = (
"460 -20 OFFCURVE",
"526 58 OFFCURVE",
"526 152 CURVE SMOOTH",
"526 226 OFFCURVE",
"476 300 OFFCURVE",
"390 372 CURVE",
"459 420 OFFCURVE",
"518 476 OFFCURVE",
"518 590 CURVE SMOOTH",
"518 723 OFFCURVE",
"396 820 OFFCURVE",
"274 820 CURVE SMOOTH",
"257 820 OFFCURVE",
"248 808 OFFCURVE",
"248 790 CURVE SMOOTH",
"248 772 OFFCURVE",
"258 761 OFFCURVE",
"274 758 CURVE SMOOTH",
"372 742 OFFCURVE",
"445 686 OFFCURVE",
"445 590 CURVE SMOOTH",
"445 484 OFFCURVE",
"390 438 OFFCURVE",
"326 396 CURVE",
"358 399 LINE",
"328 420 OFFCURVE",
"295 442 OFFCURVE",
"259 465 CURVE SMOOTH",
"143 538 LINE SMOOTH",
"114 556 OFFCURVE",
"91 570 OFFCURVE",
"71 570 CURVE SMOOTH",
"51 570 OFFCURVE",
"30 544 OFFCURVE",
"30 526 CURVE SMOOTH",
"30 507 OFFCURVE",
"39 496 OFFCURVE",
"65 480 CURVE SMOOTH",
"188 404 LINE SMOOTH",
"218 386 OFFCURVE",
"247 366 OFFCURVE",
"273 348 CURVE",
"275 363 LINE",
"184 314 OFFCURVE",
"90 254 OFFCURVE",
"90 148 CURVE SMOOTH",
"90 53 OFFCURVE",
"154 -20 OFFCURVE",
"307 -20 CURVE SMOOTH"
);
},
{
closed = 1;
nodes = (
"208 62 OFFCURVE",
"163 99 OFFCURVE",
"163 155 CURVE SMOOTH",
"163 234 OFFCURVE",
"244 282 OFFCURVE",
"327 331 CURVE",
"288 336 LINE",
"374 271 OFFCURVE",
"433 205 OFFCURVE",
"433 152 CURVE SMOOTH",
"433 107 OFFCURVE",
"403 62 OFFCURVE",
"308 62 CURVE SMOOTH"
);
}
);
width = 586;
}
);
unicode = 10522;
},
{
glyphname = u10523;
lastChange = "2018-03-12 19:50:51 +0000";
layers = (
{
layerId = UUID0;
paths = (
{
closed = 1;
nodes = (
"421 -250 OFFCURVE",
"515 -152 OFFCURVE",
"515 1 CURVE SMOOTH",
"515 166 OFFCURVE",
"414 215 OFFCURVE",
"290 259 CURVE SMOOTH",
"223 283 OFFCURVE",
"182 306 OFFCURVE",
"182 345 CURVE SMOOTH",
"182 436 OFFCURVE",
"322 512 OFFCURVE",
"395 512 CURVE SMOOTH",
"447 512 OFFCURVE",
"463 485 OFFCURVE",
"470 457 CURVE SMOOTH",
"475 438 OFFCURVE",
"481 431 OFFCURVE",
"497 431 CURVE SMOOTH",
"517 431 OFFCURVE",
"532 445 OFFCURVE",
"532 461 CURVE SMOOTH",
"532 515 OFFCURVE",
"498 573 OFFCURVE",
"393 573 CURVE SMOOTH",
"275 573 OFFCURVE",
"89 465 OFFCURVE",
"89 337 CURVE SMOOTH",
"89 253 OFFCURVE",
"146 221 OFFCURVE",
"256 177 CURVE SMOOTH",
"339 144 OFFCURVE",
"422 109 OFFCURVE",
"422 10 CURVE SMOOTH",
"422 -107 OFFCURVE",
"374 -188 OFFCURVE",
"279 -188 CURVE SMOOTH",
"162 -188 OFFCURVE",
"127 -117 OFFCURVE",
"127 -1 CURVE SMOOTH",
"127 23 OFFCURVE",
"112 36 OFFCURVE",
"94 36 CURVE SMOOTH",
"78 36 OFFCURVE",
"60 25 OFFCURVE",
"60 4 CURVE SMOOTH",
"60 -167 OFFCURVE",
"127 -250 OFFCURVE",
"282 -250 CURVE SMOOTH"
);
}
);
width = 592;
}
);
unicode = 10523;
},
{
glyphname = u10524;
lastChange = "2018-03-12 19:50:51 +0000";
layers = (
{
layerId = UUID0;
paths = (
{
closed = 1;
nodes = (
"421 -250 OFFCURVE",
"486 -154 OFFCURVE",
"486 -1 CURVE SMOOTH",
"486 483 LINE SMOOTH",
"486 507 OFFCURVE",
"463 520 OFFCURVE",
"442 520 CURVE SMOOTH",
"420 520 OFFCURVE",
"396 509 OFFCURVE",
"396 481 CURVE SMOOTH",
"396 372 OFFCURVE",
"373 297 OFFCURVE",
"266 297 CURVE SMOOTH",
"152 297 OFFCURVE",
"130 378 OFFCURVE",
"130 481 CURVE SMOOTH",
"130 507 OFFCURVE",
"112 520 OFFCURVE",
"94 520 CURVE SMOOTH",
"77 520 OFFCURVE",
"60 507 OFFCURVE",
"60 483 CURVE SMOOTH",
"60 312 OFFCURVE",
"131 235 OFFCURVE",
"253 235 CURVE SMOOTH",
"333 235 OFFCURVE",
"387 267 OFFCURVE",
"409 306 CURVE",
"396 306 LINE",
"396 22 LINE SMOOTH",
"396 -102 OFFCURVE",
"378 -188 OFFCURVE",
"262 -188 CURVE SMOOTH",
"172 -188 OFFCURVE",
"137 -117 OFFCURVE",
"137 -1 CURVE SMOOTH",
"137 23 OFFCURVE",
"124 36 OFFCURVE",
"104 36 CURVE SMOOTH",
"85 36 OFFCURVE",
"70 25 OFFCURVE",
"70 4 CURVE SMOOTH",
"70 -167 OFFCURVE",
"136 -250 OFFCURVE",
"265 -250 CURVE SMOOTH"
);
}
);
width = 566;
}
);
unicode = 10524;
},
{
glyphname = u10525;
lastChange = "2018-03-12 19:50:51 +0000";
layers = (
{
layerId = UUID0;
paths = (
{
closed = 1;
nodes = (
"148 -10 OFFCURVE",
"170 -1 OFFCURVE",
"170 16 CURVE SMOOTH",
"170 280 LINE",
"427 280 LINE SMOOTH",
"446 280 OFFCURVE",
"458 296 OFFCURVE",
"458 312 CURVE SMOOTH",
"458 326 OFFCURVE",
"448 340 OFFCURVE",
"429 340 CURVE SMOOTH",
"170 340 LINE",
"170 500 LINE",
"489 500 LINE SMOOTH",
"509 500 OFFCURVE",
"516 514 OFFCURVE",
"516 530 CURVE SMOOTH",
"516 546 OFFCURVE",
"505 560 OFFCURVE",
"489 560 CURVE SMOOTH",
"131 560 LINE SMOOTH",
"88 560 OFFCURVE",
"80 543 OFFCURVE",
"80 509 CURVE SMOOTH",
"80 16 LINE SMOOTH",
"80 -1 OFFCURVE",
"103 -10 OFFCURVE",
"125 -10 CURVE SMOOTH"
);
}
);
width = 546;
}
);
unicode = 10525;
},
{
glyphname = u10526;
lastChange = "2018-03-12 19:50:51 +0000";
layers = (
{
layerId = UUID0;
paths = (
{
closed = 1;
nodes = (
"489 0 LINE SMOOTH",
"506 0 OFFCURVE",
"517 20 OFFCURVE",
"517 42 CURVE SMOOTH",
"517 60 OFFCURVE",
"509 80 OFFCURVE",
"489 80 CURVE SMOOTH",
"170 80 LINE",
"170 544 LINE SMOOTH",
"170 561 OFFCURVE",
"148 570 OFFCURVE",
"125 570 CURVE SMOOTH",
"103 570 OFFCURVE",
"80 561 OFFCURVE",
"80 544 CURVE SMOOTH",
"80 51 LINE SMOOTH",
"80 17 OFFCURVE",
"88 0 OFFCURVE",
"131 0 CURVE"
);
}
);
width = 547;
}
);
unicode = 10526;
},
{
glyphname = u10527;
lastChange = "2018-03-12 19:50:51 +0000";
layers = (
{
layerId = UUID0;
paths = (
{
closed = 1;
nodes = (
"526 -10 OFFCURVE",
"553 10 OFFCURVE",
"553 35 CURVE SMOOTH",
"553 45 OFFCURVE",
"548 54 OFFCURVE",
"539 65 CURVE SMOOTH",
"342 293 LINE",
"510 499 LINE SMOOTH",
"519 509 OFFCURVE",
"528 522 OFFCURVE",
"528 533 CURVE SMOOTH",
"528 549 OFFCURVE",
"516 559 OFFCURVE",
"499 559 CURVE SMOOTH",
"489 559 OFFCURVE",
"482 554 OFFCURVE",
"476 547 CURVE SMOOTH",
"304 336 LINE",
"118 552 LINE SMOOTH",
"106 566 OFFCURVE",
"97 570 OFFCURVE",
"83 570 CURVE SMOOTH",
"62 570 OFFCURVE",
"35 550 OFFCURVE",
"35 526 CURVE SMOOTH",
"35 515 OFFCURVE",
"40 506 OFFCURVE",
"49 495 CURVE SMOOTH",
"247 266 LINE",
"83 67 LINE SMOOTH",
"63 42 OFFCURVE",
"55 31 OFFCURVE",
"55 18 CURVE SMOOTH",
"55 5 OFFCURVE",
"66 -8 OFFCURVE",
"80 -8 CURVE SMOOTH",
"92 -8 OFFCURVE",
"101 -2 OFFCURVE",
"108 6 CURVE SMOOTH",
"284 222 LINE",
"475 2 LINE SMOOTH",
"481 -5 OFFCURVE",
"494 -10 OFFCURVE",
"502 -10 CURVE SMOOTH"
);
}
);
width = 588;
}
);
unicode = 10527;
},
{
glyphname = Alpha;
lastChange = "2018-03-12 19:51:00 +0000";
layers = (
{
layerId = UUID0;
paths = (
{
closed = 1;
nodes = (
"91 0 LINE",
"176 221 LINE",
"459 221 LINE",
"545 0 LINE",
"638 0 LINE",
"360 717 LINE",
"279 717 LINE",
"0 0 LINE"
);
},
{
closed = 1;
nodes = (
"287 517 LINE SMOOTH",
"295 540 OFFCURVE",
"308 583 OFFCURVE",
"318 624 CURVE",
"325 599 OFFCURVE",
"346 533 OFFCURVE",
"352 517 CURVE SMOOTH",
"432 301 LINE",
"206 301 LINE"
);
}
);
width = 639;
}
);
leftKerningGroup = Alpha;
rightKerningGroup = Alpha;
unicode = 0391;
script = greek;
category = Letter;
subCategory = Uppercase;
},
{
glyphname = Beta;
lastChange = "2018-03-12 19:51:00 +0000";
layers = (
{
layerId = UUID0;
paths = (
{
closed = 1;
nodes = (
"348 0 LINE SMOOTH",
"501 0 OFFCURVE",
"596 73 OFFCURVE",
"596 203 CURVE SMOOTH",
"596 314 OFFCURVE",
"526 359 OFFCURVE",
"436 374 CURVE",
"436 379 LINE",
"524 395 OFFCURVE",
"572 453 OFFCURVE",
"572 537 CURVE SMOOTH",
"572 667 OFFCURVE",
"479 714 OFFCURVE",
"301 714 CURVE SMOOTH",
"97 714 LINE",
"97 0 LINE"
);
},
{
closed = 1;
nodes = (
"187 335 LINE",
"324 335 LINE",
"456 335 OFFCURVE",
"500 285 OFFCURVE",
"500 210 CURVE SMOOTH",
"500 130 OFFCURVE",
"457 76 OFFCURVE",
"331 76 CURVE SMOOTH",
"187 76 LINE"
);
},
{
closed = 1;
nodes = (
"187 637 LINE",
"305 637 LINE SMOOTH",
"426 637 OFFCURVE",
"479 605 OFFCURVE",
"479 527 CURVE SMOOTH",
"479 450 OFFCURVE",
"441 410 OFFCURVE",
"319 410 CURVE SMOOTH",
"187 410 LINE"
);
}
);
width = 650;
}
);
unicode = 0392;
script = greek;
category = Letter;
subCategory = Uppercase;
},
{
glyphname = Gamma;
lastChange = "2018-03-12 19:51:00 +0000";
layers = (
{
layerId = UUID0;
paths = (
{
closed = 1;
nodes = (
"187 0 LINE",
"187 634 LINE",
"500 634 LINE",
"500 714 LINE",
"97 714 LINE",
"97 0 LINE"
);
}
);
width = 524;
}
);
rightKerningGroup = Gamma;
unicode = 0393;
script = greek;
category = Letter;
subCategory = Uppercase;
},
{
glyphname = Delta;
production = Delta;
lastChange = "2018-03-12 19:51:00 +0000";
layers = (
{
layerId = UUID0;
paths = (
{
closed = 1;
nodes = (
"561 0 LINE",
"561 54 LINE",
"335 714 LINE",
"245 714 LINE",
"20 55 LINE",
"20 0 LINE"
);
},
{
closed = 1;
nodes = (
"243 455 LINE SMOOTH",
"262 511 OFFCURVE",
"277 568 OFFCURVE",
"289 616 CURVE",
"300 568 OFFCURVE",
"317 511 OFFCURVE",
"337 451 CURVE SMOOTH",
"462 79 LINE",
"116 79 LINE"
);
}
);
width = 581;
}
);
leftKerningGroup = Alpha;
rightKerningGroup = Alpha;
unicode = 0394;
script = greek;
category = Letter;
subCategory = Uppercase;
},
{
glyphname = Epsilon;
lastChange = "2018-03-12 19:51:00 +0000";
layers = (
{
layerId = UUID0;
paths = (
{
closed = 1;
nodes = (
"496 0 LINE",
"496 79 LINE",
"187 79 LINE",
"187 334 LINE",
"478 334 LINE",
"478 412 LINE",
"187 412 LINE",
"187 635 LINE",
"496 635 LINE",
"496 714 LINE",
"97 714 LINE",
"97 0 LINE"
);
}
);
width = 556;
}
);
rightKerningGroup = Epsilon;
unicode = 0395;
script = greek;
category = Letter;
subCategory = Uppercase;
},
{
glyphname = Zeta;
lastChange = "2018-03-12 19:51:00 +0000";
layers = (
{
layerId = UUID0;
paths = (
{
closed = 1;
nodes = (
"533 0 LINE",
"533 80 LINE",
"147 80 LINE",
"523 646 LINE",
"523 714 LINE",
"50 714 LINE",
"50 634 LINE",
"414 634 LINE",
"38 68 LINE",
"38 0 LINE"
);
}
);
width = 572;
}
);
unicode = 0396;
script = greek;
category = Letter;
subCategory = Uppercase;
},
{
glyphname = Eta;
lastChange = "2018-03-12 19:51:00 +0000";
layers = (
{
layerId = UUID0;
paths = (
{
closed = 1;
nodes = (
"187 0 LINE",
"187 333 LINE",
"553 333 LINE",
"553 0 LINE",
"643 0 LINE",
"643 714 LINE",
"553 714 LINE",
"553 412 LINE",
"187 412 LINE",
"187 714 LINE",
"97 714 LINE",
"97 0 LINE"
);
}
);
width = 741;
}
);
rightKerningGroup = Eta;
unicode = 0397;
script = greek;
category = Letter;
subCategory = Uppercase;
},
{
glyphname = Theta;
lastChange = "2018-03-12 19:51:00 +0000";
layers = (
{
layerId = UUID0;
paths = (
{
closed = 1;
nodes = (
"606 -10 OFFCURVE",
"720 137 OFFCURVE",
"720 358 CURVE SMOOTH",
"720 580 OFFCURVE",
"606 725 OFFCURVE",
"392 725 CURVE SMOOTH",
"168 725 OFFCURVE",
"61 578 OFFCURVE",
"61 359 CURVE SMOOTH",
"61 138 OFFCURVE",
"168 -10 OFFCURVE",
"391 -10 CURVE SMOOTH"
);
},
{
closed = 1;
nodes = (
"230 68 OFFCURVE",
"156 178 OFFCURVE",
"156 358 CURVE SMOOTH",
"156 538 OFFCURVE",
"230 646 OFFCURVE",
"392 646 CURVE SMOOTH",
"553 646 OFFCURVE",
"625 538 OFFCURVE",
"625 358 CURVE SMOOTH",
"625 178 OFFCURVE",
"553 68 OFFCURVE",
"391 68 CURVE SMOOTH"
);
},
{
closed = 1;
nodes = (
"541 324 LINE",
"541 402 LINE",
"239 402 LINE",
"239 324 LINE"
);
}
);
width = 781;
}
);
leftKerningGroup = Theta;
rightKerningGroup = Theta;
unicode = 0398;
script = greek;
category = Letter;
subCategory = Uppercase;
},
{
glyphname = Iota;
lastChange = "2018-03-12 19:51:00 +0000";
layers = (
{
layerId = UUID0;
paths = (
{
closed = 1;
nodes = (
"298 0 LINE",
"298 52 LINE",
"214 71 LINE",
"214 642 LINE",
"298 662 LINE",
"298 714 LINE",
"40 714 LINE",
"40 662 LINE",
"124 642 LINE",
"124 71 LINE",
"40 52 LINE",
"40 0 LINE"
);
}
);
width = 339;
}
);
leftKerningGroup = Iota;
rightKerningGroup = Iota;
unicode = 0399;
script = greek;
category = Letter;
subCategory = Uppercase;
},
{
glyphname = Kappa;
lastChange = "2018-03-12 19:51:00 +0000";
layers = (
{
layerId = UUID0;
paths = (
{
closed = 1;
nodes = (
"187 0 LINE",
"187 277 LINE",
"260 341 LINE",
"513 0 LINE",
"619 0 LINE",
"325 403 LINE",
"608 714 LINE",
"503 714 LINE",
"310 498 LINE SMOOTH",
"269 452 OFFCURVE",
"227 405 OFFCURVE",
"187 362 CURVE",
"187 714 LINE",
"97 714 LINE",
"97 0 LINE"
);
}
);
width = 619;
}
);
rightKerningGroup = Kappa;
unicode = 039A;
script = greek;
category = Letter;
subCategory = Uppercase;
},
{
glyphname = Lambda;
lastChange = "2018-03-12 19:51:00 +0000";
layers = (
{
layerId = UUID0;
paths = (
{
closed = 1;
nodes = (
"95 0 LINE",
"252 451 LINE SMOOTH",
"273 511 OFFCURVE",
"292 568 OFFCURVE",
"302 616 CURVE",
"314 568 OFFCURVE",
"332 512 OFFCURVE",
"354 450 CURVE SMOOTH",
"512 0 LINE",
"607 0 LINE",
"350 714 LINE",
"256 714 LINE",
"0 0 LINE"
);
}
);
width = 608;
}
);
leftKerningGroup = Alpha;
rightKerningGroup = Alpha;
unicode = 039B;
script = greek;
category = Letter;
subCategory = Uppercase;
},
{
glyphname = Mu;
lastChange = "2018-03-12 19:51:00 +0000";
layers = (
{
layerId = UUID0;
paths = (
{
closed = 1;
nodes = (
"180 0 LINE",
"180 433 LINE SMOOTH",
"180 509 OFFCURVE",
"177 585 OFFCURVE",
"173 626 CURVE",
"177 626 LINE",
"412 0 LINE",
"486 0 LINE",
"724 625 LINE",
"728 625 LINE",
"725 582 OFFCURVE",
"721 508 OFFCURVE",
"721 439 CURVE SMOOTH",
"721 0 LINE",
"810 0 LINE",
"810 714 LINE",
"678 714 LINE",
"454 129 LINE",
"450 129 LINE",
"230 714 LINE",
"97 714 LINE",
"97 0 LINE"
);
}
);
width = 907;
}
);
unicode = 039C;
script = greek;
category = Letter;
subCategory = Uppercase;
},
{
glyphname = Nu;
lastChange = "2018-03-12 19:51:00 +0000";
layers = (
{
layerId = UUID0;
paths = (
{
closed = 1;
nodes = (
"180 0 LINE",
"180 399 LINE SMOOTH",
"180 472 OFFCURVE",
"176 546 OFFCURVE",
"172 593 CURVE",
"176 593 LINE",
"558 0 LINE",
"663 0 LINE",
"663 714 LINE",
"579 714 LINE",
"579 311 LINE SMOOTH",
"579 246 OFFCURVE",
"584 155 OFFCURVE",
"586 123 CURVE",
"582 123 LINE",
"201 714 LINE",
"97 714 LINE",
"97 0 LINE"
);
}
);
width = 760;
}
);
unicode = 039D;
script = greek;
category = Letter;
subCategory = Uppercase;
},
{
glyphname = Xi;
lastChange = "2018-03-12 19:51:00 +0000";
layers = (
{
layerId = UUID0;
paths = (
{
closed = 1;
nodes = (
"519 0 LINE",
"519 79 LINE",
"35 79 LINE",
"35 0 LINE"
);
},
{
closed = 1;
nodes = (
"459 334 LINE",
"459 412 LINE",
"95 412 LINE",
"95 334 LINE"
);
},
{
closed = 1;
nodes = (
"499 635 LINE",
"499 714 LINE",
"55 714 LINE",
"55 635 LINE"
);
}
);
width = 555;
}
);
unicode = 039E;
script = greek;
category = Letter;
subCategory = Uppercase;
},
{
glyphname = Omicron;
lastChange = "2018-03-12 19:51:00 +0000";
layers = (
{
layerId = UUID0;
paths = (
{
closed = 1;
nodes = (
"606 -10 OFFCURVE",
"720 137 OFFCURVE",
"720 358 CURVE SMOOTH",
"720 580 OFFCURVE",
"606 725 OFFCURVE",
"392 725 CURVE SMOOTH",
"168 725 OFFCURVE",
"61 578 OFFCURVE",
"61 359 CURVE SMOOTH",
"61 138 OFFCURVE",
"168 -10 OFFCURVE",
"391 -10 CURVE SMOOTH"
);
},
{
closed = 1;
nodes = (
"230 68 OFFCURVE",
"156 178 OFFCURVE",
"156 358 CURVE SMOOTH",
"156 538 OFFCURVE",
"230 646 OFFCURVE",
"392 646 CURVE SMOOTH",
"553 646 OFFCURVE",
"625 538 OFFCURVE",
"625 358 CURVE SMOOTH",
"625 178 OFFCURVE",
"553 68 OFFCURVE",
"391 68 CURVE SMOOTH"
);
}
);
width = 781;
}
);
leftKerningGroup = Theta;
rightKerningGroup = Theta;
unicode = 039F;
script = greek;
category = Letter;
subCategory = Uppercase;
},
{
glyphname = Pi;
lastChange = "2018-03-12 19:51:00 +0000";
layers = (
{
layerId = UUID0;
paths = (
{
closed = 1;
nodes = (
"187 0 LINE",
"187 635 LINE",
"544 635 LINE",
"544 0 LINE",
"633 0 LINE",
"633 714 LINE",
"97 714 LINE",
"97 0 LINE"
);
}
);
width = 731;
}
);
unicode = 03A0;
script = greek;
category = Letter;
subCategory = Uppercase;
},
{
glyphname = Rho;
lastChange = "2018-03-12 19:51:00 +0000";
layers = (
{
layerId = UUID0;
paths = (
{
closed = 1;
nodes = (
"97 714 LINE",
"97 0 LINE",
"187 0 LINE",
"187 278 LINE",
"269 278 LINE SMOOTH",
"483 278 OFFCURVE",
"554 386 OFFCURVE",
"554 504 CURVE SMOOTH",
"554 637 OFFCURVE",
"473 714 OFFCURVE",
"286 714 CURVE SMOOTH"
);
},
{
closed = 1;
nodes = (
"404 637 OFFCURVE",
"461 592 OFFCURVE",
"461 500 CURVE SMOOTH",
"461 395 OFFCURVE",
"395 355 OFFCURVE",
"259 355 CURVE SMOOTH",
"187 355 LINE",
"187 637 LINE",
"278 637 LINE SMOOTH"
);
}
);
width = 605;
}
);
rightKerningGroup = Rho;
unicode = 03A1;
script = greek;
category = Letter;
subCategory = Uppercase;
},
{
glyphname = Sigma;
lastChange = "2018-03-12 19:51:00 +0000";
layers = (
{
layerId = UUID0;
paths = (
{
closed = 1;
nodes = (
"467 645 OFFCURVE",
"521 626 OFFCURVE",
"565 606 CURVE",
"601 682 LINE",
"547 709 OFFCURVE",
"477 724 OFFCURVE",
"404 724 CURVE SMOOTH",
"183 724 OFFCURVE",
"61 574 OFFCURVE",
"61 358 CURVE SMOOTH",
"61 133 OFFCURVE",
"170 -10 OFFCURVE",
"389 -10 CURVE SMOOTH",
"468 -10 OFFCURVE",
"520 -1 OFFCURVE",
"573 19 CURVE",
"573 97 LINE",
"519 81 OFFCURVE",
"464 69 OFFCURVE",
"402 69 CURVE SMOOTH",
"238 69 OFFCURVE",
"156 180 OFFCURVE",
"156 357 CURVE SMOOTH",
"156 536 OFFCURVE",
"250 645 OFFCURVE",
"403 645 CURVE SMOOTH"
);
}
);
width = 632;
}
);
unicode = 03A3;
script = greek;
category = Letter;
subCategory = Uppercase;
},
{
glyphname = Tau;
lastChange = "2018-03-12 19:51:00 +0000";
layers = (
{
layerId = UUID0;
paths = (
{
closed = 1;
nodes = (
"323 635 LINE",
"545 635 LINE",
"545 714 LINE",
"10 714 LINE",
"10 635 LINE",
"233 635 LINE",
"233 0 LINE",
"323 0 LINE"
);
}
);
width = 556;
}
);
rightKerningGroup = Gamma;
unicode = 03A4;
script = greek;
category = Letter;
subCategory = Uppercase;
},
{
glyphname = Upsilon;
lastChange = "2018-03-12 19:51:00 +0000";
layers = (
{
layerId = UUID0;
paths = (
{
closed = 1;
nodes = (
"98 714 LINE",
"0 714 LINE",
"238 273 LINE",
"238 0 LINE",
"328 0 LINE",
"328 277 LINE",
"566 714 LINE",
"469 714 LINE",
"283 363 LINE"
);
}
);
width = 566;
}
);
leftKerningGroup = Upsilon;
rightKerningGroup = Upsilon;
unicode = 03A5;
script = greek;
category = Letter;
subCategory = Uppercase;
},
{
glyphname = Phi;
lastChange = "2018-03-12 19:51:00 +0000";
layers = (
{
layerId = UUID0;
paths = (
{
closed = 1;
nodes = (
"357 724 LINE",
"357 636 LINE",
"127 632 OFFCURVE",
"51 511 OFFCURVE",
"51 370 CURVE SMOOTH",
"51 247 OFFCURVE",
"114 105 OFFCURVE",
"357 100 CURVE",
"357 -10 LINE",
"446 -10 LINE",
"446 100 LINE",
"683 105 OFFCURVE",
"752 241 OFFCURVE",
"752 370 CURVE SMOOTH",
"752 515 OFFCURVE",
"678 632 OFFCURVE",
"446 636 CURVE",
"446 724 LINE"
);
},
{
closed = 1;
nodes = (
"357 174 LINE",
"207 179 OFFCURVE",
"142 253 OFFCURVE",
"142 371 CURVE SMOOTH",
"142 482 OFFCURVE",
"196 556 OFFCURVE",
"357 560 CURVE"
);
},
{
closed = 1;
nodes = (
"607 556 OFFCURVE",
"661 484 OFFCURVE",
"661 371 CURVE SMOOTH",
"661 256 OFFCURVE",
"600 179 OFFCURVE",
"446 174 CURVE",
"446 560 LINE"
);
}
);
width = 804;
}
);
unicode = 03A6;
script = greek;
category = Letter;
subCategory = Uppercase;
},
{
glyphname = Chi;
lastChange = "2018-03-12 19:51:00 +0000";
layers = (
{
layerId = UUID0;
paths = (
{
closed = 1;
nodes = (
"344 374 LINE",
"565 714 LINE",
"470 714 LINE",
"294 434 LINE",
"119 714 LINE",
"19 714 LINE",
"241 372 LINE",
"4 0 LINE",
"99 0 LINE",
"291 310 LINE",
"480 0 LINE",
"582 0 LINE"
);
}
);
width = 586;
}
);
rightKerningGroup = Kappa;
unicode = 03A7;
script = greek;
category = Letter;
subCategory = Uppercase;
},
{
glyphname = Psi;
lastChange = "2018-03-12 19:51:00 +0000";
layers = (
{
layerId = UUID0;
paths = (
{
closed = 1;
nodes = (
"659 714 LINE",
"659 478 LINE SMOOTH",
"659 357 OFFCURVE",
"597 294 OFFCURVE",
"445 294 CURVE",
"445 714 LINE",
"357 714 LINE",
"357 294 LINE",
"208 294 OFFCURVE",
"143 356 OFFCURVE",
"143 480 CURVE SMOOTH",
"143 714 LINE",
"53 714 LINE",
"53 478 LINE SMOOTH",
"53 346 OFFCURVE",
"116 217 OFFCURVE",
"357 217 CURVE",
"357 0 LINE",
"445 0 LINE",
"445 217 LINE",
"685 217 OFFCURVE",
"751 343 OFFCURVE",
"751 479 CURVE SMOOTH",
"751 714 LINE"
);
}
);
width = 804;
}
);
unicode = 03A8;
script = greek;
category = Letter;
subCategory = Uppercase;
},
{
glyphname = Omega;
production = Omega;
lastChange = "2018-03-12 19:51:00 +0000";
layers = (
{
layerId = UUID0;
paths = (
{
closed = 1;
nodes = (
"552 646 OFFCURVE",
"625 553 OFFCURVE",
"625 401 CURVE SMOOTH",
"625 269 OFFCURVE",
"581 160 OFFCURVE",
"457 72 CURVE",
"457 0 LINE",
"745 0 LINE",
"745 79 LINE",
"568 79 LINE",
"653 144 OFFCURVE",
"719 255 OFFCURVE",
"719 405 CURVE SMOOTH",
"719 601 OFFCURVE",
"603 725 OFFCURVE",
"391 725 CURVE SMOOTH",
"182 725 OFFCURVE",
"64 600 OFFCURVE",
"64 404 CURVE SMOOTH",
"64 255 OFFCURVE",
"131 144 OFFCURVE",
"216 79 CURVE",
"38 79 LINE",
"38 0 LINE",
"326 0 LINE",
"326 72 LINE",
"202 161 OFFCURVE",
"159 268 OFFCURVE",
"159 401 CURVE SMOOTH",
"159 553 OFFCURVE",
"231 646 OFFCURVE",
"391 646 CURVE SMOOTH"
);
}
);
width = 782;
}
);
rightKerningGroup = uni03A9;
unicode = 03A9;
script = greek;
category = Letter;
subCategory = Uppercase;
},
{
glyphname = uni03DA;
lastChange = "2018-03-12 19:51:00 +0000";
layers = (
{
layerId = UUID0;
paths = (
{
closed = 1;
nodes = (
"433 0 LINE",
"433 224 LINE",
"402 224 LINE SMOOTH",
"238 224 OFFCURVE",
"156 305 OFFCURVE",
"156 434 CURVE SMOOTH",
"156 562 OFFCURVE",
"235 645 OFFCURVE",
"394 645 CURVE SMOOTH",
"467 645 OFFCURVE",
"518 627 OFFCURVE",
"568 604 CURVE",
"601 682 LINE",
"542 708 OFFCURVE",
"477 724 OFFCURVE",
"393 724 CURVE SMOOTH",
"174 724 OFFCURVE",
"61 606 OFFCURVE",
"61 435 CURVE SMOOTH",
"61 271 OFFCURVE",
"154 165 OFFCURVE",
"343 150 CURVE",
"343 0 LINE"
);
}
);
width = 613;
}
);
unicode = 03DA;
script = greek;
category = Letter;
subCategory = Uppercase;
},
{
glyphname = uni03DC;
lastChange = "2018-03-12 19:51:00 +0000";
layers = (
{
layerId = UUID0;
paths = (
{
closed = 1;
nodes = (
"187 0 LINE",
"187 303 LINE",
"376 303 LINE",
"376 175 LINE",
"462 175 LINE",
"462 382 LINE",
"187 382 LINE",
"187 635 LINE",
"486 635 LINE",
"486 714 LINE",
"97 714 LINE",
"97 0 LINE"
);
}
);
width = 534;
}
);
unicode = 03DC;
script = greek;
category = Letter;
subCategory = Uppercase;
},
{
glyphname = uni03DE;
lastChange = "2018-03-12 19:51:00 +0000";
layers = (
{
layerId = UUID0;
paths = (
{
closed = 1;
nodes = (
"440 -10 OFFCURVE",
"462 -3 OFFCURVE",
"475 2 CURVE",
"475 75 LINE",
"464 71 OFFCURVE",
"446 66 OFFCURVE",
"425 66 CURVE SMOOTH",
"396 66 OFFCURVE",
"377 81 OFFCURVE",
"377 113 CURVE SMOOTH",
"377 137 OFFCURVE",
"385 164 OFFCURVE",
"391 184 CURVE SMOOTH",
"458 412 LINE",
"148 412 LINE",
"176 508 LINE SMOOTH",
"189 551 OFFCURVE",
"194 584 OFFCURVE",
"194 607 CURVE SMOOTH",
"194 680 OFFCURVE",
"150 724 OFFCURVE",
"67 724 CURVE SMOOTH",
"42 724 OFFCURVE",
"19 720 OFFCURVE",
"-5 709 CURVE",
"18 637 LINE",
"30 644 OFFCURVE",
"48 648 OFFCURVE",
"59 648 CURVE SMOOTH",
"86 648 OFFCURVE",
"105 633 OFFCURVE",
"105 601 CURVE SMOOTH",
"105 577 OFFCURVE",
"97 550 OFFCURVE",
"91 530 CURVE SMOOTH",
"33 333 LINE",
"343 333 LINE",
"306 206 LINE",
"293 163 OFFCURVE",
"288 130 OFFCURVE",
"288 107 CURVE SMOOTH",
"288 31 OFFCURVE",
"340 -10 OFFCURVE",
"415 -10 CURVE"
);
}
);
width = 495;
}
);
unicode = 03DE;
script = greek;
category = Letter;
subCategory = Uppercase;
},
{
glyphname = uni25CC;
lastChange = "2018-03-12 19:51:00 +0000";
layers = (
{
layerId = UUID0;
paths = (
{
closed = 1;
nodes = (
"469 423 OFFCURVE",
"481 435 OFFCURVE",
"481 449 CURVE SMOOTH",
"481 463 OFFCURVE",
"469 475 OFFCURVE",
"455 475 CURVE SMOOTH",
"441 475 OFFCURVE",
"429 463 OFFCURVE",
"429 449 CURVE SMOOTH",
"429 435 OFFCURVE",
"441 423 OFFCURVE",
"455 423 CURVE SMOOTH"
);
},
{
closed = 1;
nodes = (
"153 107 OFFCURVE",
"165 119 OFFCURVE",
"165 133 CURVE SMOOTH",
"165 147 OFFCURVE",
"153 159 OFFCURVE",
"139 159 CURVE SMOOTH",
"125 159 OFFCURVE",
"113 147 OFFCURVE",
"113 133 CURVE SMOOTH",
"113 119 OFFCURVE",
"125 107 OFFCURVE",
"139 107 CURVE SMOOTH"
);
},
{
closed = 1;
nodes = (
"227 60 OFFCURVE",
"239 72 OFFCURVE",
"239 86 CURVE SMOOTH",
"239 100 OFFCURVE",
"227 112 OFFCURVE",
"213 112 CURVE SMOOTH",
"199 112 OFFCURVE",
"187 100 OFFCURVE",
"187 86 CURVE SMOOTH",
"187 72 OFFCURVE",
"199 60 OFFCURVE",
"213 60 CURVE SMOOTH"
);
},
{
closed = 1;
nodes = (
"106 181 OFFCURVE",
"118 193 OFFCURVE",
"118 207 CURVE SMOOTH",
"118 221 OFFCURVE",
"106 233 OFFCURVE",
"92 233 CURVE SMOOTH",
"78 233 OFFCURVE",
"66 221 OFFCURVE",
"66 207 CURVE SMOOTH",
"66 193 OFFCURVE",
"78 181 OFFCURVE",
"92 181 CURVE SMOOTH"
);
},
{
closed = 1;
nodes = (
"311 42 OFFCURVE",
"323 54 OFFCURVE",
"323 68 CURVE SMOOTH",
"323 82 OFFCURVE",
"311 94 OFFCURVE",
"297 94 CURVE SMOOTH",
"283 94 OFFCURVE",
"271 82 OFFCURVE",
"271 68 CURVE SMOOTH",
"271 54 OFFCURVE",
"283 42 OFFCURVE",
"297 42 CURVE SMOOTH"
);
},
{
closed = 1;
nodes = (
"88 265 OFFCURVE",
"100 277 OFFCURVE",
"100 291 CURVE SMOOTH",
"100 305 OFFCURVE",
"88 317 OFFCURVE",
"74 317 CURVE SMOOTH",
"60 317 OFFCURVE",
"48 305 OFFCURVE",
"48 291 CURVE SMOOTH",
"48 277 OFFCURVE",
"60 265 OFFCURVE",
"74 265 CURVE SMOOTH"
);
},
{
closed = 1;
nodes = (
"395 60 OFFCURVE",
"407 72 OFFCURVE",
"407 86 CURVE SMOOTH",
"407 100 OFFCURVE",
"395 112 OFFCURVE",
"381 112 CURVE SMOOTH",
"367 112 OFFCURVE",
"355 100 OFFCURVE",
"355 86 CURVE SMOOTH",
"355 72 OFFCURVE",
"367 60 OFFCURVE",
"381 60 CURVE SMOOTH"
);
},
{
closed = 1;
nodes = (
"106 349 OFFCURVE",
"118 361 OFFCURVE",
"118 375 CURVE SMOOTH",
"118 389 OFFCURVE",
"106 401 OFFCURVE",
"92 401 CURVE SMOOTH",
"78 401 OFFCURVE",
"66 389 OFFCURVE",
"66 375 CURVE SMOOTH",
"66 361 OFFCURVE",
"78 349 OFFCURVE",
"92 349 CURVE SMOOTH"
);
},
{
closed = 1;
nodes = (
"153 423 OFFCURVE",
"165 435 OFFCURVE",
"165 449 CURVE SMOOTH",
"165 463 OFFCURVE",
"153 475 OFFCURVE",
"139 475 CURVE SMOOTH",
"125 475 OFFCURVE",
"113 463 OFFCURVE",
"113 449 CURVE SMOOTH",
"113 435 OFFCURVE",
"125 423 OFFCURVE",
"139 423 CURVE SMOOTH"
);
},
{
closed = 1;
nodes = (
"469 107 OFFCURVE",
"481 119 OFFCURVE",
"481 133 CURVE SMOOTH",
"481 147 OFFCURVE",
"469 159 OFFCURVE",
"455 159 CURVE SMOOTH",
"441 159 OFFCURVE",
"429 147 OFFCURVE",
"429 133 CURVE SMOOTH",
"429 119 OFFCURVE",
"441 107 OFFCURVE",
"455 107 CURVE SMOOTH"
);
},
{
closed = 1;
nodes = (
"227 470 OFFCURVE",
"239 482 OFFCURVE",
"239 496 CURVE SMOOTH",
"239 510 OFFCURVE",
"227 522 OFFCURVE",
"213 522 CURVE SMOOTH",
"199 522 OFFCURVE",
"187 510 OFFCURVE",
"187 496 CURVE SMOOTH",
"187 482 OFFCURVE",
"199 470 OFFCURVE",
"213 470 CURVE SMOOTH"
);
},
{
closed = 1;
nodes = (
"516 181 OFFCURVE",
"528 193 OFFCURVE",
"528 207 CURVE SMOOTH",
"528 221 OFFCURVE",
"516 233 OFFCURVE",
"502 233 CURVE SMOOTH",
"488 233 OFFCURVE",
"476 221 OFFCURVE",
"476 207 CURVE SMOOTH",
"476 193 OFFCURVE",
"488 181 OFFCURVE",
"502 181 CURVE SMOOTH"
);
},
{
closed = 1;
nodes = (
"311 488 OFFCURVE",
"323 500 OFFCURVE",
"323 514 CURVE SMOOTH",
"323 528 OFFCURVE",
"311 540 OFFCURVE",
"297 540 CURVE SMOOTH",
"283 540 OFFCURVE",
"271 528 OFFCURVE",
"271 514 CURVE SMOOTH",
"271 500 OFFCURVE",
"283 488 OFFCURVE",
"297 488 CURVE SMOOTH"
);
},
{
closed = 1;
nodes = (
"534 265 OFFCURVE",
"546 277 OFFCURVE",
"546 291 CURVE SMOOTH",
"546 305 OFFCURVE",
"534 317 OFFCURVE",
"520 317 CURVE SMOOTH",
"506 317 OFFCURVE",
"494 305 OFFCURVE",
"494 291 CURVE SMOOTH",
"494 277 OFFCURVE",
"506 265 OFFCURVE",
"520 265 CURVE SMOOTH"
);
},
{
closed = 1;
nodes = (
"395 470 OFFCURVE",
"407 482 OFFCURVE",
"407 496 CURVE SMOOTH",
"407 510 OFFCURVE",
"395 522 OFFCURVE",
"381 522 CURVE SMOOTH",
"367 522 OFFCURVE",
"355 510 OFFCURVE",
"355 496 CURVE SMOOTH",
"355 482 OFFCURVE",
"367 470 OFFCURVE",
"381 470 CURVE SMOOTH"
);
},
{
closed = 1;
nodes = (
"516 349 OFFCURVE",
"528 361 OFFCURVE",
"528 375 CURVE SMOOTH",
"528 389 OFFCURVE",
"516 401 OFFCURVE",
"502 401 CURVE SMOOTH",
"488 401 OFFCURVE",
"476 389 OFFCURVE",
"476 375 CURVE SMOOTH",
"476 361 OFFCURVE",
"488 349 OFFCURVE",
"502 349 CURVE SMOOTH"
);
}
);
width = 594;
}
);
unicode = 25CC;
category = Letter;
},
{
glyphname = periodcentered;
lastChange = "2018-03-12 19:50:51 +0000";
layers = (
{
layerId = UUID0;
paths = (
{
closed = 1;
nodes = (
"236 272 OFFCURVE",
"260 297 OFFCURVE",
"260 330 CURVE SMOOTH",
"260 362 OFFCURVE",
"236 388 OFFCURVE",
"205 388 CURVE SMOOTH",
"175 388 OFFCURVE",
"150 362 OFFCURVE",
"150 330 CURVE SMOOTH",
"150 297 OFFCURVE",
"175 272 OFFCURVE",
"205 272 CURVE SMOOTH"
);
}
);
width = 410;
}
);
unicode = 00B7;
category = Letter;
},
{
glyphname = overlinecmb;
production = overlinecmb;
lastChange = "2018-03-12 19:50:58 +0000";
layers = (
{
layerId = UUID0;
paths = (
{
closed = 1;
nodes = (
"208 771 LINE",
"208 841 LINE",
"-208 841 LINE",
"-208 771 LINE"
);
}
);
width = 0;
}
);
unicode = 0305;
category = Mark;
},
{
glyphname = overlinecmb.w1;
production = overlinecmb.w1;
lastChange = "2018-03-12 19:50:58 +0000";
layers = (
{
layerId = UUID0;
paths = (
{
closed = 1;
nodes = (
"303 771 LINE",
"303 841 LINE",
"-304 841 LINE",
"-304 771 LINE"
);
}
);
width = 0;
}
);
category = Mark;
},
{
glyphname = overlinecmb.w2;
production = overlinecmb.w2;
lastChange = "2018-03-12 19:50:58 +0000";
layers = (
{
layerId = UUID0;
paths = (
{
closed = 1;
nodes = (
"328 771 LINE",
"328 841 LINE",
"-328 841 LINE",
"-328 771 LINE"
);
}
);
width = 0;
}
);
category = Mark;
},
{
glyphname = overlinecmb.w3;
production = overlinecmb.w3;
lastChange = "2018-03-12 19:50:58 +0000";
layers = (
{
layerId = UUID0;
paths = (
{
closed = 1;
nodes = (
"392 771 LINE",
"392 841 LINE",
"-392 841 LINE",
"-392 771 LINE"
);
}
);
width = 0;
}
);
category = Mark;
},
{
glyphname = overlinecmb.w4;
production = overlinecmb.w4;
lastChange = "2018-03-12 19:50:58 +0000";
layers = (
{
layerId = UUID0;
paths = (
{
closed = 1;
nodes = (
"455 771 LINE",
"455 841 LINE",
"-456 841 LINE",
"-456 771 LINE"
);
}
